<svg xmlns="http://www.w3.org/2000/svg" version="1.1" xmlnsXlink="http://www.w3.org/1999/xlink" xmlnsSvgjs="http://svgjs.dev/svgjs" width="1000" height="1427" viewBox="0 0 1000 1427"><g transform="matrix(1,0,0,1,-0.7653967553069947,0.5777327935222729)"><svg viewBox="0 0 173 247" data-background-color="#252628" preserveAspectRatio="xMidYMid meet" height="1427" width="1000" xmlns="http://www.w3.org/2000/svg" xmlns:xlink="http://www.w3.org/1999/xlink"><g id="tight-bounds" transform="matrix(1,0,0,1,0.13241363866811184,-0.09999999999999432)"><svg viewBox="0 0 172.73517272266378 247.2" height="247.2" width="172.73517272266378"><g><svg></svg></g><g><svg viewBox="0 0 172.73517272266378 247.2" height="247.2" width="172.73517272266378"><g transform="matrix(1,0,0,1,0,47.215199999999996)"><svg viewBox="0 0 172.73517272266378 152.7696" height="152.7696" width="172.73517272266378"><g><svg viewBox="0 0 172.73517272266378 152.7696" height="152.7696" width="172.73517272266378"><g><svg viewBox="0 0 244.43136 216.17879269215314" height="152.7696" width="172.73517272266378"><g><svg viewBox="0 0 244.43136 129.00827970983448" height="129.00827970983448" width="244.43136"><g id="textblocktransform"><svg viewBox="0 0 244.43136 129.00827970983448" height="129.00827970983448" width="244.43136" id="textblock"><g><svg viewBox="0 0 244.43136 69.58090159725624" height="69.58090159725624" width="244.43136"><g transform="matrix(1,0,0,1,0,0)"><svg width="244.43136" viewBox="1.7 -28.5 102.05 29.05" height="69.58090159725624" data-palette-color="#08a0f5"><path d="M1.7-7.8Q1.7-12.35 6.28-14.65 10.85-16.95 18.1-17L18.1-17 18.1-18.15Q18.1-20.2 17.68-21.35 17.25-22.5 16.13-23.08 15-23.65 12.85-23.65L12.85-23.65Q10.4-23.65 8.45-23.03 6.5-22.4 4.4-21.4L4.4-21.4 2.85-24.6Q3.6-25.25 5.38-26.15 7.15-27.05 9.6-27.73 12.05-28.4 14.65-28.4L14.65-28.4Q18.5-28.4 20.68-27.4 22.85-26.4 23.8-24.2 24.75-22 24.75-18.3L24.75-18.3 24.75-3 27.45-3 27.45-0.2Q26.45 0.05 24.6 0.3 22.75 0.55 21.35 0.55L21.35 0.55Q19.65 0.55 19.07 0.05 18.5-0.45 18.5-2L18.5-2 18.5-3.35Q17.15-1.85 15-0.65 12.85 0.55 10.15 0.55L10.15 0.55Q7.85 0.55 5.93-0.43 4-1.4 2.85-3.28 1.7-5.15 1.7-7.8L1.7-7.8ZM13.35-3.6Q14.4-3.6 15.75-4.23 17.1-4.85 18.1-5.75L18.1-5.75 18.1-13.95Q13.6-13.95 11.38-12.43 9.15-10.9 9.15-8.5L9.15-8.5Q9.15-6.1 10.28-4.85 11.4-3.6 13.35-3.6L13.35-3.6ZM29.9-13.75Q29.9-18.05 31.62-21.4 33.35-24.75 36.57-26.63 39.8-28.5 44.1-28.5L44.1-28.5Q46.1-28.5 47.55-28.2 49-27.9 50.8-27.4L50.8-27.4 52.25-27 51.95-18.45 47.6-18.45 46.35-23.95Q46.05-25.25 43.4-25.25L43.4-25.25Q40.6-25.25 39.02-22.8 37.45-20.35 37.4-15.15L37.4-15.15Q37.4-9.65 39.3-6.73 41.2-3.8 44.35-3.8L44.35-3.8Q48.15-3.8 51.35-5.85L51.35-5.85 52.5-3.25Q51.2-1.85 48.52-0.65 45.85 0.55 42.75 0.55L42.75 0.55Q36.35 0.55 33.12-3.4 29.9-7.35 29.9-13.75L29.9-13.75ZM56.5 0L56.5-3 59.3-3.45 59.3-23.05 56.1-23.95 56.1-27.4 64.4-28.45 65-28.05 65.75-26.4 65.75-24.3Q67.4-25.9 70.47-27.13 73.55-28.35 75.8-28.35L75.8-28.35Q78.5-28.35 80.17-27.45 81.84-26.55 82.7-24.65L82.7-24.65Q84.34-26.15 87.05-27.25 89.75-28.35 92.34-28.35L92.34-28.35Q96.8-28.35 98.65-25.75 100.5-23.15 100.5-17.25L100.5-17.25 100.5-3.45 103.75-3 103.75 0 90.8 0 90.8-3 93.4-3.45 93.4-17.05Q93.4-20.95 92.47-22.53 91.55-24.1 88.95-24.1L88.95-24.1Q87.55-24.1 86.07-23.48 84.59-22.85 83.45-21.95L83.45-21.95Q83.8-20.05 83.8-17.2L83.8-17.2 83.8-3.45 86.9-3 86.9 0 73.84 0 73.84-3 76.59-3.45 76.59-17.2Q76.59-19.8 76.27-21.28 75.95-22.75 75.05-23.43 74.15-24.1 72.45-24.1L72.45-24.1Q70.84-24.1 69.27-23.38 67.7-22.65 66.45-21.65L66.45-21.65 66.45-3.45 69.4-3 69.4 0 56.5 0Z" opacity="1" transform="matrix(1,0,0,1,0,0)" fill="#08a0f5" class="undefined-text-0" data-fill-palette-color="primary" id="text-0"></path></svg></g></svg></g><g transform="matrix(1,0,0,1,0,86.00728252273011)"><svg viewBox="0 0 244.43136 43.00099718710436" height="43.00099718710436" width="244.43136"><g transform="matrix(1,0,0,1,0,0)"><svg width="244.43136" viewBox="0.5 -29.45 167.4 29.45" height="43.00099718710436" data-palette-color="#4b91f1"><path d="M22.45 0L14.45 0 0.5-29.35 7.5-29.35 16.9-9.1 18.25-5.5 18.7-5.5 20-9.1 29.5-29.35 36.3-29.35 35.5-26.35 22.45 0ZM74.58 0L66.58 0 52.63-29.35 59.63-29.35 69.03-9.1 70.38-5.5 70.83-5.5 72.13-9.1 81.63-29.35 88.43-29.35 87.63-26.35 74.58 0ZM114.87 0L108.27 0 108.27-29.4 114.87-29.4 114.87 0ZM154.85 0L148.25 0 148.2-24.65 135.2-24.65 135.2-29.45 167.9-29.45 167.9-24.65 154.85-24.65 154.85 0Z" opacity="1" transform="matrix(1,0,0,1,0,0)" fill="#4b91f1" class="undefined-text-1" data-fill-palette-color="secondary" id="text-1"></path></svg></g></svg></g></svg></g></svg></g><g transform="matrix(1,0,0,1,65.56871232,145.43466063530835)"><svg viewBox="0 0 113.29393536 70.74413205684478" height="70.74413205684478" width="113.29393536"><g><svg xmlns="http://www.w3.org/2000/svg" xmlns:xlink="http://www.w3.org/1999/xlink" version="1.1" x="0" y="0" viewBox="0 18.788999999999998 100.00000000000001 62.442999999999984" enable-background="new 0 0 100 100" xml:space="preserve" width="113.29393536" height="70.74413205684478" class="icon-icon-0" data-fill-palette-color="accent" id="icon-0"><g fill="#1ebbd7" data-fill-palette-color="accent"><g fill="#1ebbd7" data-fill-palette-color="accent"><path d="M97.938 68.771h-6.316V20.81c0-1.115-0.905-2.021-2.021-2.021H10.399c-1.115 0-2.021 0.906-2.021 2.021v47.961H2.062C0.924 68.771 0 69.694 0 70.832v2.084c0 0.103 0.008 0.204 0.022 0.306 0.527 3.521 3.348 7.447 7.159 7.922 0.083 0.01 0.169 0.017 0.252 0.017l84.51 0.071h0.003c4.404 0 7.604-4.197 8.041-8.085 0.009-0.075 0.013-0.152 0.013-0.23v-2.084C100 69.694 99.076 68.771 97.938 68.771zM12.42 22.831h75.16v45.939H59.985c-0.133 0-0.262 0.016-0.386 0.04H41.16c-0.128-0.025-0.261-0.04-0.396-0.04H12.42V22.831zM91.948 77.107L7.586 77.036c-1.461-0.261-3.024-2.16-3.434-4.143h35.086c0.702 1.246 2.017 2.085 3.519 2.085h15.233c1.502 0 2.816-0.839 3.52-2.085h34.35C95.538 74.926 93.854 77.107 91.948 77.107zM38.84 37.498c-0.814-0.814-2.133-0.814-2.947 0l-8.689 8.689c-0.814 0.814-0.814 2.133 0 2.948l8.689 8.688c0.407 0.407 0.94 0.611 1.474 0.611s1.066-0.204 1.474-0.611c0.814-0.813 0.814-2.133 0-2.947l-7.216-7.215 7.216-7.216C39.654 39.631 39.654 38.312 38.84 37.498zM59.361 57.823c0.406 0.407 0.939 0.611 1.474 0.611 0.533 0 1.066-0.204 1.474-0.611l8.688-8.688c0.814-0.814 0.814-2.133 0-2.948l-8.688-8.689c-0.814-0.814-2.134-0.814-2.947 0-0.814 0.814-0.814 2.133 0 2.947l7.215 7.216-7.215 7.215C58.547 55.69 58.547 57.01 59.361 57.823zM41.793 62.275c0.299 0.148 0.617 0.22 0.931 0.22 0.765 0 1.5-0.422 1.866-1.152l12.506-25.011c0.515-1.03 0.098-2.281-0.933-2.796-1.029-0.513-2.281-0.098-2.797 0.932L40.861 59.479C40.346 60.509 40.763 61.76 41.793 62.275z" fill="#1ebbd7" data-fill-palette-color="accent"></path></g></g></svg></g></svg></g><g></g></svg></g></svg></g></svg></g><path d="M0 41.215L0 1 172.735 1 172.735 41.215 168.301 41.215 168.301 5.434 4.434 5.434 4.434 41.215 0 41.215M0 205.985L0 246.2 172.735 246.2 172.735 205.985 168.301 205.985 168.301 241.766 4.434 241.766 4.434 205.985 0 205.985" fill="#08a0f5" stroke="transparent" data-fill-palette-color="primary"></path></svg></g><defs></defs></svg><rect width="172.73517272266378" height="247.2" fill="none" stroke="none" visibility="hidden"></rect></g></svg></g></svg>